<?xml version="1.0" encoding="UTF-8" standalone="no"?>
<svg width="15px" height="17px" viewBox="0 0 15 17" version="1.1" xmlns="http://www.w3.org/2000/svg" xmlns:xlink="http://www.w3.org/1999/xlink">
    <!-- Generator: Sketch 43 (38999) - http://www.bohemiancoding.com/sketch -->
    <title>clear-button</title>
    <desc>Created with Sketch.</desc>
    <defs></defs>
    <g id="Page-1" stroke="none" stroke-width="1" fill="none" fill-rule="evenodd">
        <g id="clear-button" fill="#FFFFFF">
            <path d="M5.4285779,6.51784703 L5.4285779,12.6249972 C5.4285779,12.8158456 5.28014022,12.9642833 5.08929178,12.9642833 L4.41071954,12.9642833 C4.2198711,12.9642833 4.07143342,12.8158456 4.07143342,12.6249972 L4.07143342,6.51784703 C4.07143342,6.32699859 4.2198711,6.17856091 4.41071954,6.17856091 L5.08929178,6.17856091 C5.28014022,6.17856091 5.4285779,6.32699859 5.4285779,6.51784703 Z M8.14286685,6.51784703 L8.14286685,12.6249972 C8.14286685,12.8158456 7.99442917,12.9642833 7.80358073,12.9642833 L7.12500849,12.9642833 C6.93416005,12.9642833 6.78572237,12.8158456 6.78572237,12.6249972 L6.78572237,6.51784703 C6.78572237,6.32699859 6.93416005,6.17856091 7.12500849,6.17856091 L7.80358073,6.17856091 C7.99442917,6.17856091 8.14286685,6.32699859 8.14286685,6.51784703 Z M10.8571558,6.51784703 L10.8571558,12.6249972 C10.8571558,12.8158456 10.7087181,12.9642833 10.5178697,12.9642833 L9.83929744,12.9642833 C9.648449,12.9642833 9.50001132,12.8158456 9.50001132,12.6249972 L9.50001132,6.51784703 C9.50001132,6.32699859 9.648449,6.17856091 9.83929744,6.17856091 L10.5178697,6.17856091 C10.7087181,6.17856091 10.8571558,6.32699859 10.8571558,6.51784703 Z M12.2143003,14.1941955 L12.2143003,4.1428442 L2.71428895,4.1428442 L2.71428895,14.1941955 C2.71428895,14.7031246 3.00056161,15 3.05357507,15 L11.8750142,15 C11.9280276,15 12.2143003,14.7031246 12.2143003,14.1941955 Z M5.08929178,2.78569973 L9.83929744,2.78569973 L9.33036827,1.54518485 C9.29856019,1.50277409 9.20313597,1.43915794 9.15012251,1.42855525 L5.7890694,1.42855525 C5.72545325,1.43915794 5.64063172,1.50277409 5.60882365,1.54518485 L5.08929178,2.78569973 Z M14.9285892,3.12498584 L14.9285892,3.80355808 C14.9285892,3.99440652 14.7801515,4.1428442 14.5893031,4.1428442 L13.5714447,4.1428442 L13.5714447,14.1941955 C13.5714447,15.3604915 12.808051,16.3571445 11.8750142,16.3571445 L3.05357507,16.3571445 C2.12053824,16.3571445 1.35714447,15.4029023 1.35714447,14.2366062 L1.35714447,4.1428442 L0.339286119,4.1428442 C0.148437677,4.1428442 0,3.99440652 0,3.80355808 L0,3.12498584 C0,2.9341374 0.148437677,2.78569973 0.339286119,2.78569973 L3.6155177,2.78569973 L4.35770609,1.01505029 C4.56975991,0.495518424 5.20592138,0.0714107752 5.76786402,0.0714107752 L9.16072521,0.0714107752 C9.72266784,0.0714107752 10.3588293,0.495518424 10.5708831,1.01505029 L11.3130715,2.78569973 L14.5893031,2.78569973 C14.7801515,2.78569973 14.9285892,2.9341374 14.9285892,3.12498584 Z" id=""></path>
        </g>
    </g>
</svg>