<?xml version="1.0" encoding="UTF-8" standalone="no"?>
<svg width="79px" height="65px" viewBox="0 0 79 65" version="1.1" xmlns="http://www.w3.org/2000/svg" xmlns:xlink="http://www.w3.org/1999/xlink">
    <!-- Generator: Sketch 43 (38999) - http://www.bohemiancoding.com/sketch -->
    <title>dropzone-icon</title>
    <desc>Created with Sketch.</desc>
    <defs></defs>
    <g id="Page-1" stroke="none" stroke-width="1" fill="none" fill-rule="evenodd">
        <g id="dropzone-icon" transform="translate(-1.000000, 0.000000)" fill="#929292">
            <path d="M1.58642578,62 L1.58642578,52.046875 L4.39599609,52.046875 C5.26188584,52.046875 6.02750318,52.2382793 6.69287109,52.6210938 C7.358239,53.0039082 7.8720685,53.5484991 8.234375,54.2548828 C8.5966815,54.9612666 8.78011065,55.7724564 8.78466797,56.6884766 L8.78466797,57.3242188 C8.78466797,58.2630255 8.60351744,59.0856084 8.24121094,59.7919922 C7.87890444,60.4983759 7.36165701,61.0406882 6.68945312,61.4189453 C6.01724924,61.7972024 5.23454223,61.9908854 4.34130859,62 L1.58642578,62 Z M2.89892578,53.1269531 L2.89892578,60.9267578 L4.27978516,60.9267578 C5.29150896,60.9267578 6.07877323,60.6123078 6.64160156,59.9833984 C7.2044299,59.354489 7.48583984,58.4589902 7.48583984,57.296875 L7.48583984,56.7158203 C7.48583984,55.5856063 7.22038026,54.7071971 6.68945312,54.0805664 C6.15852599,53.4539357 5.40544107,53.1360678 4.43017578,53.1269531 L2.89892578,53.1269531 Z M14.144043,55.7382812 C13.9526358,55.70638 13.7452811,55.6904297 13.5219727,55.6904297 C12.6925414,55.6904297 12.1297215,56.0436163 11.8334961,56.75 L11.8334961,62 L10.5688477,62 L10.5688477,54.6035156 L11.7993164,54.6035156 L11.8198242,55.4580078 C12.2345398,54.7971972 12.8224246,54.4667969 13.5834961,54.4667969 C13.8295911,54.4667969 14.0164382,54.4986976 14.144043,54.5625 L14.144043,55.7382812 Z M14.8344727,58.2333984 C14.8344727,57.5087854 14.9768866,56.8570992 15.2617188,56.2783203 C15.5465509,55.6995414 15.9430313,55.2529313 16.4511719,54.9384766 C16.9593124,54.6240219 17.539222,54.4667969 18.190918,54.4667969 C19.1980845,54.4667969 20.0126922,54.8154262 20.6347656,55.5126953 C21.256839,56.2099644 21.5678711,57.137364 21.5678711,58.2949219 L21.5678711,58.3837891 C21.5678711,59.1038447 21.4300144,59.7498344 21.1542969,60.3217773 C20.8785794,60.8937203 20.4843776,61.3391911 19.9716797,61.6582031 C19.4589818,61.9772151 18.8699578,62.1367188 18.2045898,62.1367188 C17.2019807,62.1367188 16.3896515,61.7880894 15.7675781,61.0908203 C15.1455047,60.3935512 14.8344727,59.4707089 14.8344727,58.3222656 L14.8344727,58.2333984 Z M16.105957,58.3837891 C16.105957,59.2041057 16.2962221,59.8626277 16.6767578,60.359375 C17.0572936,60.8561223 17.5665658,61.1044922 18.2045898,61.1044922 C18.8471712,61.1044922 19.3575827,60.8527043 19.7358398,60.3491211 C20.1140969,59.8455378 20.3032227,59.140304 20.3032227,58.2333984 C20.3032227,57.4221965 20.110679,56.7648137 19.7255859,56.2612305 C19.3404929,55.7576472 18.828942,55.5058594 18.190918,55.5058594 C17.5665659,55.5058594 17.0629902,55.7542293 16.6801758,56.2509766 C16.2973614,56.7477238 16.105957,57.4586542 16.105957,58.3837891 Z M29.4018555,58.3837891 C29.4018555,59.5094457 29.1443711,60.4163377 28.6293945,61.1044922 C28.114418,61.7926467 27.4171593,62.1367188 26.5375977,62.1367188 C25.6398067,62.1367188 24.9334336,61.8518909 24.418457,61.2822266 L24.418457,64.84375 L23.1538086,64.84375 L23.1538086,54.6035156 L24.309082,54.6035156 L24.3706055,55.4238281 C24.885582,54.7858041 25.6010696,54.4667969 26.5170898,54.4667969 C27.4057662,54.4667969 28.1087214,54.8017545 28.6259766,55.4716797 C29.1432318,56.1416049 29.4018555,57.0735617 29.4018555,58.2675781 L29.4018555,58.3837891 Z M28.137207,58.2402344 C28.137207,57.4062458 27.9594744,56.7477238 27.6040039,56.2646484 C27.2485334,55.7815731 26.760908,55.5400391 26.1411133,55.5400391 C25.3754845,55.5400391 24.8012714,55.8795539 24.418457,56.5585938 L24.418457,60.0927734 C24.7967141,60.767256 25.3754844,61.1044922 26.1547852,61.1044922 C26.760908,61.1044922 27.2428368,60.8640975 27.6005859,60.3833008 C27.9583351,59.9025041 28.137207,59.1881558 28.137207,58.2402344 Z M39.0405273,62 C38.9676103,61.8541659 38.9083661,61.5944029 38.862793,61.2207031 C38.2748994,61.8313833 37.5730835,62.1367188 36.7573242,62.1367188 C36.0281539,62.1367188 35.4300154,61.9305034 34.9628906,61.5180664 C34.4957659,61.1056294 34.262207,60.5826855 34.262207,59.9492188 C34.262207,59.1790326 34.5550101,58.5808941 35.140625,58.1547852 C35.7262399,57.7286763 36.5499621,57.515625 37.6118164,57.515625 L38.8422852,57.515625 L38.8422852,56.9345703 C38.8422852,56.4925108 38.710125,56.1404635 38.4458008,55.878418 C38.1814765,55.6163724 37.791832,55.4853516 37.2768555,55.4853516 C36.8256813,55.4853516 36.4474299,55.5992827 36.1420898,55.8271484 C35.8367498,56.0550142 35.684082,56.3307275 35.684082,56.6542969 L34.4125977,56.6542969 C34.4125977,56.2851544 34.5436185,55.9285499 34.8056641,55.5844727 C35.0677096,55.2403954 35.4231748,54.9681 35.8720703,54.7675781 C36.3209658,54.5670563 36.8142877,54.4667969 37.3520508,54.4667969 C38.2042686,54.4667969 38.8719051,54.6798481 39.3549805,55.105957 C39.8380558,55.5320659 40.0887043,56.1188114 40.1069336,56.8662109 L40.1069336,60.2705078 C40.1069336,60.9495477 40.1935213,61.4895813 40.3666992,61.890625 L40.3666992,62 L39.0405273,62 Z M36.9418945,61.0361328 C37.3383809,61.0361328 37.7143537,60.9335948 38.0698242,60.7285156 C38.4252947,60.5234365 38.6827792,60.2568376 38.8422852,59.9287109 L38.8422852,58.4111328 L37.8510742,58.4111328 C36.3015873,58.4111328 35.5268555,58.8645788 35.5268555,59.7714844 C35.5268555,60.1679707 35.6590156,60.4778635 35.9233398,60.7011719 C36.1876641,60.9244803 36.5271789,61.0361328 36.9418945,61.0361328 Z M51.8032227,58.3837891 C51.8032227,59.5094457 51.5457383,60.4163377 51.0307617,61.1044922 C50.5157852,61.7926467 49.8185265,62.1367188 48.9389648,62.1367188 C48.0411739,62.1367188 47.3348008,61.8518909 46.8198242,61.2822266 L46.8198242,64.84375 L45.5551758,64.84375 L45.5551758,54.6035156 L46.7104492,54.6035156 L46.7719727,55.4238281 C47.2869492,54.7858041 48.0024368,54.4667969 48.918457,54.4667969 C49.8071333,54.4667969 50.5100886,54.8017545 51.0273438,55.4716797 C51.5445989,56.1416049 51.8032227,57.0735617 51.8032227,58.2675781 L51.8032227,58.3837891 Z M50.5385742,58.2402344 C50.5385742,57.4062458 50.3608416,56.7477238 50.0053711,56.2646484 C49.6499006,55.7815731 49.1622752,55.5400391 48.5424805,55.5400391 C47.7768516,55.5400391 47.2026386,55.8795539 46.8198242,56.5585938 L46.8198242,60.0927734 C47.1980813,60.767256 47.7768516,61.1044922 48.5561523,61.1044922 C49.1622752,61.1044922 49.6442039,60.8640975 50.0019531,60.3833008 C50.3597023,59.9025041 50.5385742,59.1881558 50.5385742,58.2402344 Z M54.6743164,55.4990234 C55.2348661,54.810869 55.9640255,54.4667969 56.8618164,54.4667969 C58.4249753,54.4667969 59.2133788,55.348624 59.2270508,57.1123047 L59.2270508,62 L57.9624023,62 L57.9624023,57.1054688 C57.957845,56.572263 57.8359387,56.1780612 57.5966797,55.9228516 C57.3574207,55.667642 56.9848658,55.5400391 56.4790039,55.5400391 C56.0688456,55.5400391 55.7088232,55.649413 55.3989258,55.8681641 C55.0890284,56.0869152 54.8474944,56.3740217 54.6743164,56.7294922 L54.6743164,62 L53.409668,62 L53.409668,51.5 L54.6743164,51.5 L54.6743164,55.4990234 Z M60.7856445,58.2333984 C60.7856445,57.5087854 60.9280585,56.8570992 61.2128906,56.2783203 C61.4977228,55.6995414 61.8942032,55.2529313 62.4023438,54.9384766 C62.9104843,54.6240219 63.4903939,54.4667969 64.1420898,54.4667969 C65.1492563,54.4667969 65.9638641,54.8154262 66.5859375,55.5126953 C67.2080109,56.2099644 67.519043,57.137364 67.519043,58.2949219 L67.519043,58.3837891 C67.519043,59.1038447 67.3811863,59.7498344 67.1054688,60.3217773 C66.8297512,60.8937203 66.4355494,61.3391911 65.9228516,61.6582031 C65.4101537,61.9772151 64.8211296,62.1367188 64.1557617,62.1367188 C63.1531525,62.1367188 62.3408234,61.7880894 61.71875,61.0908203 C61.0966766,60.3935512 60.7856445,59.4707089 60.7856445,58.3222656 L60.7856445,58.2333984 Z M62.0571289,58.3837891 C62.0571289,59.2041057 62.2473939,59.8626277 62.6279297,60.359375 C63.0084654,60.8561223 63.5177377,61.1044922 64.1557617,61.1044922 C64.7983431,61.1044922 65.3087546,60.8527043 65.6870117,60.3491211 C66.0652688,59.8455378 66.2543945,59.140304 66.2543945,58.2333984 C66.2543945,57.4221965 66.0618509,56.7648137 65.6767578,56.2612305 C65.2916647,55.7576472 64.7801139,55.5058594 64.1420898,55.5058594 C63.5177378,55.5058594 63.0141621,55.7542293 62.6313477,56.2509766 C62.2485332,56.7477238 62.0571289,57.4586542 62.0571289,58.3837891 Z M70.8208008,52.8125 L70.8208008,54.6035156 L72.2016602,54.6035156 L72.2016602,55.5810547 L70.8208008,55.5810547 L70.8208008,60.1679688 C70.8208008,60.4641942 70.8823236,60.6863599 71.0053711,60.8344727 C71.1284186,60.9825854 71.3380519,61.0566406 71.6342773,61.0566406 C71.7801114,61.0566406 71.9806302,61.0292971 72.2358398,60.9746094 L72.2358398,62 C71.9031559,62.0911463 71.5795914,62.1367188 71.2651367,62.1367188 C70.7000297,62.1367188 70.2739272,61.965822 69.9868164,61.6240234 C69.6997056,61.2822249 69.5561523,60.7968781 69.5561523,60.1679688 L69.5561523,55.5810547 L68.2094727,55.5810547 L68.2094727,54.6035156 L69.5561523,54.6035156 L69.5561523,52.8125 L70.8208008,52.8125 Z M73.206543,58.2333984 C73.206543,57.5087854 73.3489569,56.8570992 73.6337891,56.2783203 C73.9186212,55.6995414 74.3151016,55.2529313 74.8232422,54.9384766 C75.3313827,54.6240219 75.9112923,54.4667969 76.5629883,54.4667969 C77.5701548,54.4667969 78.3847625,54.8154262 79.0068359,55.5126953 C79.6289094,56.2099644 79.9399414,57.137364 79.9399414,58.2949219 L79.9399414,58.3837891 C79.9399414,59.1038447 79.8020847,59.7498344 79.5263672,60.3217773 C79.2506497,60.8937203 78.8564479,61.3391911 78.34375,61.6582031 C77.8310521,61.9772151 77.2420281,62.1367188 76.5766602,62.1367188 C75.574051,62.1367188 74.7617219,61.7880894 74.1396484,61.0908203 C73.517575,60.3935512 73.206543,59.4707089 73.206543,58.3222656 L73.206543,58.2333984 Z M74.4780273,58.3837891 C74.4780273,59.2041057 74.6682924,59.8626277 75.0488281,60.359375 C75.4293639,60.8561223 75.9386361,61.1044922 76.5766602,61.1044922 C77.2192415,61.1044922 77.7296531,60.8527043 78.1079102,60.3491211 C78.4861673,59.8455378 78.675293,59.140304 78.675293,58.2333984 C78.675293,57.4221965 78.4827493,56.7648137 78.0976562,56.2612305 C77.7125632,55.7576472 77.2010123,55.5058594 76.5629883,55.5058594 C75.9386362,55.5058594 75.4350605,55.7542293 75.0522461,56.2509766 C74.6694317,56.7477238 74.4780273,57.4586542 74.4780273,58.3837891 Z" id="text"></path>
            <path d="M40.0000249,15.1964062 C43.4604085,15.1964062 46.2678895,18.0038872 46.2678895,21.4642708 C46.2678895,24.9246544 43.4604085,27.7321354 40.0000249,27.7321354 C36.5396413,27.7321354 33.7321603,24.9246544 33.7321603,21.4642708 C33.7321603,18.0038872 36.5396413,15.1964062 40.0000249,15.1964062 Z M55.3214717,6.14282393 C58.3901138,6.14282393 60.892907,8.6456171 60.892907,11.7142591 L60.892907,31.2142824 C60.892907,34.2829244 58.3901138,36.7857176 55.3214717,36.7857176 L24.6785781,36.7857176 C21.609936,36.7857176 19.1071429,34.2829244 19.1071429,31.2142824 L19.1071429,11.7142591 C19.1071429,8.6456171 21.609936,6.14282393 24.6785781,6.14282393 L29.5535839,6.14282393 L30.6635182,3.18299898 C31.2076037,1.74661334 32.9051504,0.571388721 34.4285897,0.571388721 L45.5714601,0.571388721 C47.0948994,0.571388721 48.7924461,1.74661334 49.3365316,3.18299898 L50.4464659,6.14282393 L55.3214717,6.14282393 Z M40.0000249,31.2142824 C45.3755894,31.2142824 49.7500365,26.8398352 49.7500365,21.4642708 C49.7500365,16.0887063 45.3755894,11.7142591 40.0000249,11.7142591 C34.6244605,11.7142591 30.2500133,16.0887063 30.2500133,21.4642708 C30.2500133,26.8398352 34.6244605,31.2142824 40.0000249,31.2142824 Z" id="camera"></path>
        </g>
    </g>
</svg>