<?xml version="1.0" encoding="UTF-8" standalone="no"?>
<svg width="16px" height="16px" viewBox="0 0 16 16" version="1.1" xmlns="http://www.w3.org/2000/svg" xmlns:xlink="http://www.w3.org/1999/xlink">
    <!-- Generator: Sketch 43.2 (39069) - http://www.bohemiancoding.com/sketch -->
    <title>fullscreen</title>
    <desc>Created with Sketch.</desc>
    <defs></defs>
    <g id="Page-1" stroke="none" stroke-width="1" fill="none" fill-rule="evenodd">
        <g id="20" transform="translate(-1.000000, -1.000000)" stroke="#FFFFFF" stroke-width="2">
            <g id="fullscreen" transform="translate(1.000000, 1.000000)">
                <path d="M0,5.33333333 L0,1.77592278 L0,1.77592278 C0,0.79510771 0.798453887,0 1.77592278,0 L5.33333333,0" id="Rectangle-2" transform="translate(2.666667, 2.666667) rotate(180.000000) translate(-2.666667, -2.666667) "></path>
                <path d="M10.6666667,0 L10.6666667,0 L14.2240772,0 C15.2048923,0 16,0.798453887 16,1.77592278 L16,5.33333333" id="Rectangle-2" transform="translate(13.333333, 2.666667) rotate(180.000000) translate(-13.333333, -2.666667) "></path>
                <path d="M5.33333333,16 L1.77592278,16 C0.79510771,16 0,15.2015461 0,14.2240772 L0,10.6666667 L0,10.6666667" id="Rectangle-2" transform="translate(2.666667, 13.333333) rotate(180.000000) translate(-2.666667, -13.333333) "></path>
                <path d="M16,10.6666667 L16,14.2240772 C16,15.2048923 15.2015461,16 14.2240772,16 L10.6666667,16" id="Rectangle-2" transform="translate(13.333333, 13.333333) rotate(180.000000) translate(-13.333333, -13.333333) "></path>
            </g>
        </g>
    </g>
</svg>