<?xml version="1.0" encoding="UTF-8" standalone="no"?>
<svg width="16px" height="17px" viewBox="0 0 16 17" version="1.1" xmlns="http://www.w3.org/2000/svg" xmlns:xlink="http://www.w3.org/1999/xlink">
    <!-- Generator: Sketch 43 (38999) - http://www.bohemiancoding.com/sketch -->
    <title></title>
    <desc>Created with Sketch.</desc>
    <defs></defs>
    <g id="Page-1" stroke="none" stroke-width="1" fill="none" fill-rule="evenodd">
        <path d="M15.7143041,8.57142091 C15.7143041,4.32253191 12.2488982,0.857125998 8.0000092,0.857125998 C6.02121219,0.857125998 4.10268312,1.65065373 2.68638679,2.98659282 L1.38058166,1.69083235 C1.19977788,1.49998391 0.91852754,1.44976063 0.687500479,1.55020718 C0.446428763,1.65065373 0.285714286,1.88168079 0.285714286,2.14284182 L0.285714286,6.64284718 C0.285714286,6.9944101 0.577009276,7.28570509 0.928572195,7.28570509 L5.42857756,7.28570509 C5.68973858,7.28570509 5.92076565,7.12499061 6.02121219,6.8839189 C6.12165874,6.65289184 6.07143547,6.3716415 5.88058703,6.19083771 L4.50446931,4.80467535 C5.43862221,3.93079038 6.68415941,3.42855763 8.0000092,3.42855763 C10.8326019,3.42855763 13.1428725,5.73882825 13.1428725,8.57142091 C13.1428725,11.4040136 10.8326019,13.7142842 8.0000092,13.7142842 C6.40290908,13.7142842 4.92634482,12.991069 3.94196864,11.7153979 C3.89174537,11.6450853 3.80134348,11.6049067 3.71094158,11.594862 C3.62053969,11.594862 3.5301378,11.624996 3.45982521,11.6852639 L2.0837075,13.0714263 C1.9732163,13.1819175 1.96317164,13.3727659 2.06361819,13.5033464 C3.5301378,15.2712057 5.69978324,16.2857158 8.0000092,16.2857158 C12.2488982,16.2857158 15.7143041,12.8203099 15.7143041,8.57142091 Z" id="" fill="#FFFFFF"></path>
    </g>
</svg>